# xmcd
#
# Track frame offsets: 
#        150
#        17129
#        31542
#        46095
#        55725
#        69528
#        82497
#        96396
#        110520
#        122382
#        137702
#        157825
#        165529
#        181529
#        195941
#
# Disc length: 2777 seconds
#
# Revision: 0
# Processed by: cddbd v1.5.2PL0 Copyright (c) Steve Scherf et al.
# Submitted via: ExactAudioCopy v0.99pb5
#
DISCID=b30ad70f
DTITLE=On One - 40 Ounce Album and Mixtape Disc 2
DYEAR=2004
DGENRE=Rap
TTITLE0=We Luv Gangsta Shit - Fidel Castro, Young Dru, Mully Mak, B-12
TTITLE1=Enjoy Your Stay - De La Vega
TTITLE2=2 o' Clock - Young Dru, Jay Tee
TTITLE3=Crossroads - Reek Daddy
TTITLE4=Real Spit - Cool Nutz, Jay Tee
TTITLE5=Hell Now - Errelevent, 10sion
TTITLE6=Golden State Savages - Free Agents
TTITLE7=That's The Noise - A-Team
TTITLE8=She Scream's - Weet Dog
TTITLE9=Raise It Up (Remix) - The Raskal, Sykk 1, J-Bone
TTITLE10=Money Circulatin' - Dof Kapone, Baby Bash, Miami
TTITLE11=Before You Was A Man - A-Wax
TTITLE12=If You Wanna Go - Jay Tee, Mugzi, Young Dru
TTITLE13=Still Broke - B-12, Chilee Powdah, I-Rocc, Smigg Dirtee
TTITLE14=Outside The Club - Jaytee, B-12
EXTD=
EXTT0=
EXTT1=
EXTT2=
EXTT3=
EXTT4=
EXTT5=
EXTT6=
EXTT7=
EXTT8=
EXTT9=
EXTT10=
EXTT11=
EXTT12=
EXTT13=
EXTT14=
PLAYORDER=
